<svg width="24" height="24" viewBox="0 0 24 24" fill="none" xmlns="http://www.w3.org/2000/svg">
<path d="M5.0695 20.0036H3.84031C3.09965 20.0036 2.46976 19.4632 2.35709 18.7312L2.02086 16.5453C1.8581 15.5218 2.50524 14.5438 3.51092 14.2935C4.99822 13.9414 6.52485 13.7834 8.05273 13.8235V13.8214C8.95227 13.0369 9.94721 12.3691 11.014 11.8338C13.2375 10.7221 15.8548 10.7221 18.0784 11.8338L20.3365 12.9628C20.6547 13.12 20.985 13.2514 21.3241 13.3558C21.7324 13.4886 22.0076 13.8706 22.0041 14.2999V18.5031C22.0041 19.3319 21.3323 20.0037 20.5035 20.0037H18.9539" stroke="#55556D" stroke-width="1.5" stroke-linecap="round" stroke-linejoin="round"/>
<path d="M12 6.99846V5.99805" stroke="#55556D" stroke-width="1.5" stroke-linecap="round" stroke-linejoin="round"/>
<path d="M8.49848 5.49717L7.99827 5.99738" stroke="#55556D" stroke-width="1.5" stroke-linecap="round" stroke-linejoin="round"/>
<path d="M16.0017 5.99738L15.5014 5.49717" stroke="#55556D" stroke-width="1.5" stroke-linecap="round" stroke-linejoin="round"/>
<path d="M18.0024 2.9963H5.99744" stroke="#55556D" stroke-width="1.5" stroke-linecap="round" stroke-linejoin="round"/>
<circle cx="6.65112" cy="19.2527" r="1.75073" stroke="#55556D" stroke-width="1.5" stroke-linecap="round" stroke-linejoin="round"/>
<circle cx="17.3721" cy="19.2527" r="1.75073" stroke="#55556D" stroke-width="1.5" stroke-linecap="round" stroke-linejoin="round"/>
<path d="M15.7256 20.0031H8.23315" stroke="#55556D" stroke-width="1.5" stroke-linecap="round" stroke-linejoin="round"/>
</svg>
