<svg width="28" height="18" viewBox="0 0 48 48" fill="none" xmlns="http://www.w3.org/2000/svg">
<path d="M34.0045 23.5138H14.0962" stroke="#2E1066" stroke-width="2" stroke-linecap="round" stroke-linejoin="round"/>
<path d="M34.0045 23.5138H14.0962" stroke="#410F9E" stroke-width="2" stroke-linecap="round" stroke-linejoin="round"/>
<path d="M34.0045 23.5138H14.0962" stroke="#453888" stroke-width="2" stroke-linecap="round" stroke-linejoin="round"/>
<path d="M34.0045 23.5138H14.0962" stroke="#5946D7" stroke-width="2" stroke-linecap="round" stroke-linejoin="round"/>
<path d="M27.5017 27.8696H28.5021" stroke="#2E1066" stroke-width="2" stroke-linecap="round" stroke-linejoin="round"/>
<path d="M27.5017 27.8696H28.5021" stroke="#410F9E" stroke-width="2" stroke-linecap="round" stroke-linejoin="round"/>
<path d="M27.5017 27.8696H28.5021" stroke="#453888" stroke-width="2" stroke-linecap="round" stroke-linejoin="round"/>
<path d="M27.5017 27.8696H28.5021" stroke="#5946D7" stroke-width="2" stroke-linecap="round" stroke-linejoin="round"/>
<path fill-rule="evenodd" clip-rule="evenodd" d="M13.9961 24.6142V30.6407C13.9961 32.4805 15.4857 33.9728 17.3255 33.9761L30.671 34.0041C31.5556 34.0036 32.4038 33.6517 33.0289 33.0258C33.6541 32.3999 34.005 31.5514 34.0044 30.6668V17.3332C34.0055 15.4935 32.5168 14.0002 30.677 13.9958H22.1835C21.1645 13.9958 20.2013 14.4617 19.5684 15.2603L15.4427 20.4765C14.5086 21.6537 13.9989 23.1115 13.9961 24.6142Z" stroke="#2E1066" stroke-width="2" stroke-linecap="round" stroke-linejoin="round"/>
<path fill-rule="evenodd" clip-rule="evenodd" d="M13.9961 24.6142V30.6407C13.9961 32.4805 15.4857 33.9728 17.3255 33.9761L30.671 34.0041C31.5556 34.0036 32.4038 33.6517 33.0289 33.0258C33.6541 32.3999 34.005 31.5514 34.0044 30.6668V17.3332C34.0055 15.4935 32.5168 14.0002 30.677 13.9958H22.1835C21.1645 13.9958 20.2013 14.4617 19.5684 15.2603L15.4427 20.4765C14.5086 21.6537 13.9989 23.1115 13.9961 24.6142Z" stroke="#410F9E" stroke-width="2" stroke-linecap="round" stroke-linejoin="round"/>
<path fill-rule="evenodd" clip-rule="evenodd" d="M13.9961 24.6142V30.6407C13.9961 32.4805 15.4857 33.9728 17.3255 33.9761L30.671 34.0041C31.5556 34.0036 32.4038 33.6517 33.0289 33.0258C33.6541 32.3999 34.005 31.5514 34.0044 30.6668V17.3332C34.0055 15.4935 32.5168 14.0002 30.677 13.9958H22.1835C21.1645 13.9958 20.2013 14.4617 19.5684 15.2603L15.4427 20.4765C14.5086 21.6537 13.9989 23.1115 13.9961 24.6142Z" stroke="#453888" stroke-width="2" stroke-linecap="round" stroke-linejoin="round"/>
<path fill-rule="evenodd" clip-rule="evenodd" d="M13.9961 24.6142V30.6407C13.9961 32.4805 15.4857 33.9728 17.3255 33.9761L30.671 34.0041C31.5556 34.0036 32.4038 33.6517 33.0289 33.0258C33.6541 32.3999 34.005 31.5514 34.0044 30.6668V17.3332C34.0055 15.4935 32.5168 14.0002 30.677 13.9958H22.1835C21.1645 13.9958 20.2013 14.4617 19.5684 15.2603L15.4427 20.4765C14.5086 21.6537 13.9989 23.1115 13.9961 24.6142Z" stroke="#5946D7" stroke-width="2" stroke-linecap="round" stroke-linejoin="round"/>
<rect x="5.99268" y="5.99249" width="36.015" height="36.015" rx="5" stroke="#2E1066" stroke-width="2" stroke-linecap="round" stroke-linejoin="round"/>
<rect x="5.99268" y="5.99249" width="36.015" height="36.015" rx="5" stroke="#410F9E" stroke-width="2" stroke-linecap="round" stroke-linejoin="round"/>
<rect x="5.99268" y="5.99249" width="36.015" height="36.015" rx="5" stroke="#453888" stroke-width="2" stroke-linecap="round" stroke-linejoin="round"/>
<rect x="5.99268" y="5.99249" width="36.015" height="36.015" rx="5" stroke="#5946D7" stroke-width="2" stroke-linecap="round" stroke-linejoin="round"/>
</svg>
