<svg width="28" height="18" viewBox="0 0 48 48" fill="none" xmlns="http://www.w3.org/2000/svg">
<path fill-rule="evenodd" clip-rule="evenodd" d="M28.0981 32.1534V32.1534C26.8287 32.3651 25.5305 32.0076 24.5485 31.1759C23.5664 30.3442 23 29.1225 23 27.8356V20.1644C23 18.8775 23.5664 17.6558 24.5485 16.8241C25.5305 15.9924 26.8287 15.6349 28.0981 15.8466V15.8466C32.0839 16.5108 35.0052 19.9593 35.005 24V24C35.0052 28.0407 32.0839 31.4892 28.0981 32.1534V32.1534Z" stroke="#2E1066" stroke-width="2" stroke-linecap="round" stroke-linejoin="round"/>
<path fill-rule="evenodd" clip-rule="evenodd" d="M28.0981 32.1534V32.1534C26.8287 32.3651 25.5305 32.0076 24.5485 31.1759C23.5664 30.3442 23 29.1225 23 27.8356V20.1644C23 18.8775 23.5664 17.6558 24.5485 16.8241C25.5305 15.9924 26.8287 15.6349 28.0981 15.8466V15.8466C32.0839 16.5108 35.0052 19.9593 35.005 24V24C35.0052 28.0407 32.0839 31.4892 28.0981 32.1534V32.1534Z" stroke="#410F9E" stroke-width="2" stroke-linecap="round" stroke-linejoin="round"/>
<path fill-rule="evenodd" clip-rule="evenodd" d="M28.0981 32.1534V32.1534C26.8287 32.3651 25.5305 32.0076 24.5485 31.1759C23.5664 30.3442 23 29.1225 23 27.8356V20.1644C23 18.8775 23.5664 17.6558 24.5485 16.8241C25.5305 15.9924 26.8287 15.6349 28.0981 15.8466V15.8466C32.0839 16.5108 35.0052 19.9593 35.005 24V24C35.0052 28.0407 32.0839 31.4892 28.0981 32.1534V32.1534Z" stroke="#453888" stroke-width="2" stroke-linecap="round" stroke-linejoin="round"/>
<path fill-rule="evenodd" clip-rule="evenodd" d="M28.0981 32.1534V32.1534C26.8287 32.3651 25.5305 32.0076 24.5485 31.1759C23.5664 30.3442 23 29.1225 23 27.8356V20.1644C23 18.8775 23.5664 17.6558 24.5485 16.8241C25.5305 15.9924 26.8287 15.6349 28.0981 15.8466V15.8466C32.0839 16.5108 35.0052 19.9593 35.005 24V24C35.0052 28.0407 32.0839 31.4892 28.0981 32.1534V32.1534Z" stroke="#5946D7" stroke-width="2" stroke-linecap="round" stroke-linejoin="round"/>
<path d="M13.9961 19.9983L17.9978 18.9979" stroke="#2E1066" stroke-width="2" stroke-linecap="round" stroke-linejoin="round"/>
<path d="M13.9961 19.9983L17.9978 18.9979" stroke="#410F9E" stroke-width="2" stroke-linecap="round" stroke-linejoin="round"/>
<path d="M13.9961 19.9983L17.9978 18.9979" stroke="#453888" stroke-width="2" stroke-linecap="round" stroke-linejoin="round"/>
<path d="M13.9961 19.9983L17.9978 18.9979" stroke="#5946D7" stroke-width="2" stroke-linecap="round" stroke-linejoin="round"/>
<path d="M13.9961 25.0004L17.9978 24" stroke="#2E1066" stroke-width="2" stroke-linecap="round" stroke-linejoin="round"/>
<path d="M13.9961 25.0004L17.9978 24" stroke="#410F9E" stroke-width="2" stroke-linecap="round" stroke-linejoin="round"/>
<path d="M13.9961 25.0004L17.9978 24" stroke="#453888" stroke-width="2" stroke-linecap="round" stroke-linejoin="round"/>
<path d="M13.9961 25.0004L17.9978 24" stroke="#5946D7" stroke-width="2" stroke-linecap="round" stroke-linejoin="round"/>
<path fill-rule="evenodd" clip-rule="evenodd" d="M24.0002 42.0075V42.0075C14.0549 42.0075 5.99268 33.9453 5.99268 24V24C5.99268 14.0547 14.0549 5.99251 24.0002 5.99251V5.99251C33.9454 5.99251 42.0077 14.0547 42.0077 24V24C42.0077 33.9453 33.9454 42.0075 24.0002 42.0075V42.0075Z" stroke="#2E1066" stroke-width="2" stroke-linecap="round" stroke-linejoin="round"/>
<path fill-rule="evenodd" clip-rule="evenodd" d="M24.0002 42.0075V42.0075C14.0549 42.0075 5.99268 33.9453 5.99268 24V24C5.99268 14.0547 14.0549 5.99251 24.0002 5.99251V5.99251C33.9454 5.99251 42.0077 14.0547 42.0077 24V24C42.0077 33.9453 33.9454 42.0075 24.0002 42.0075V42.0075Z" stroke="#410F9E" stroke-width="2" stroke-linecap="round" stroke-linejoin="round"/>
<path fill-rule="evenodd" clip-rule="evenodd" d="M24.0002 42.0075V42.0075C14.0549 42.0075 5.99268 33.9453 5.99268 24V24C5.99268 14.0547 14.0549 5.99251 24.0002 5.99251V5.99251C33.9454 5.99251 42.0077 14.0547 42.0077 24V24C42.0077 33.9453 33.9454 42.0075 24.0002 42.0075V42.0075Z" stroke="#453888" stroke-width="2" stroke-linecap="round" stroke-linejoin="round"/>
<path fill-rule="evenodd" clip-rule="evenodd" d="M24.0002 42.0075V42.0075C14.0549 42.0075 5.99268 33.9453 5.99268 24V24C5.99268 14.0547 14.0549 5.99251 24.0002 5.99251V5.99251C33.9454 5.99251 42.0077 14.0547 42.0077 24V24C42.0077 33.9453 33.9454 42.0075 24.0002 42.0075V42.0075Z" stroke="#5946D7" stroke-width="2" stroke-linecap="round" stroke-linejoin="round"/>
<path d="M13.9961 30.0025L17.9978 29.0021" stroke="#2E1066" stroke-width="2" stroke-linecap="round" stroke-linejoin="round"/>
<path d="M13.9961 30.0025L17.9978 29.0021" stroke="#410F9E" stroke-width="2" stroke-linecap="round" stroke-linejoin="round"/>
<path d="M13.9961 30.0025L17.9978 29.0021" stroke="#453888" stroke-width="2" stroke-linecap="round" stroke-linejoin="round"/>
<path d="M13.9961 30.0025L17.9978 29.0021" stroke="#5946D7" stroke-width="2" stroke-linecap="round" stroke-linejoin="round"/>
</svg>
