<svg width="18" height="18" viewBox="0 0 18 18" fill="none" xmlns="http://www.w3.org/2000/svg">
<path fill-rule="evenodd" clip-rule="evenodd" d="M0.979386 3.7246C1.22121 2.32069 2.33711 1.28869 3.74548 1.0744C5.09493 0.86907 6.94616 0.666626 8.99984 0.666626C11.0535 0.666626 12.9047 0.86907 14.2542 1.0744C15.6626 1.28869 16.7785 2.32069 17.0203 3.7246C17.1888 4.70306 17.3332 5.946 17.3332 7.33329C17.3332 8.72058 17.1888 9.96353 17.0203 10.942C16.7785 12.3459 15.6626 13.3779 14.2542 13.5922C13.0197 13.78 11.3652 13.9655 9.5199 13.9957L4.42378 17.007C3.86826 17.3353 3.1665 16.9348 3.1665 16.2896V13.4533C2.03864 13.0782 1.18697 12.1471 0.979386 10.942C0.810847 9.96353 0.666504 8.72058 0.666504 7.33329C0.666504 5.946 0.810847 4.70306 0.979386 3.7246ZM3.99984 5.66663C3.99984 5.20639 4.37293 4.83329 4.83317 4.83329H13.1665C13.6267 4.83329 13.9998 5.20639 13.9998 5.66663C13.9998 6.12686 13.6267 6.49996 13.1665 6.49996H4.83317C4.37293 6.49996 3.99984 6.12686 3.99984 5.66663ZM3.99984 8.99996C3.99984 8.53972 4.37293 8.16663 4.83317 8.16663H8.1665C8.62674 8.16663 8.99984 8.53972 8.99984 8.99996C8.99984 9.4602 8.62674 9.83329 8.1665 9.83329H4.83317C4.37293 9.83329 3.99984 9.4602 3.99984 8.99996Z" fill="white"/>
</svg>
